<svg version="1.1" xmlns="http://www.w3.org/2000/svg" width="455px" height="455px" viewBox="0 0 455 455">
  <path fill="#FFD700" d="M113.846,0h227.308c24.631,0,44.615,19.984,44.615,44.615v365.769c0,10.155-12.184,15.625-19.518,8.292
       l-118.077-118.078l-118.077,118.078c-7.334,7.333-19.518,1.863-19.518-8.292V44.615C69.231,19.984,89.215,0,113.846,0z"/>
  <path fill="#FFA500" d="M341.154,0h-227.308c-13.43,0-24.615,11.185-24.615,24.615v365.769c0,8.049,9.743,12.419,16.077,6.085
       l111.231-111.231l111.231,111.231c6.334,6.334,16.077,1.964,16.077-6.085V24.615C365.769,11.185,354.584,0,341.154,0z"/>
</svg>